<svg width="120" height="59" viewBox="0 0 120 59" fill="none" xmlns="http://www.w3.org/2000/svg">
<g clip-path="url(#clip0_954_4073)">
<g clip-path="url(#clip1_954_4073)">
<path d="M116.822 59.0002C117.403 59.0131 117.981 58.921 118.53 58.7282C118.959 58.5827 119.339 58.3172 119.624 57.9626C119.873 57.6421 120.006 57.245 120 56.8377C120.025 56.4146 119.887 55.9983 119.614 55.6758C119.366 55.4047 119.05 55.2054 118.7 55.0982C118.255 54.9739 117.803 54.8752 117.347 54.8027C116.982 54.7557 116.621 54.6759 116.27 54.5643C116.174 54.5377 116.089 54.4798 116.029 54.3997C115.969 54.3195 115.937 54.2216 115.937 54.1211C115.941 54.0229 115.973 53.9279 116.028 53.8471C116.084 53.7663 116.16 53.7029 116.25 53.6644C116.544 53.5305 116.865 53.4706 117.187 53.4897C117.867 53.4839 118.536 53.6575 119.129 53.9934L119.794 52.5898C119.428 52.3846 119.033 52.2374 118.624 52.1533C118.156 52.0491 117.679 51.9962 117.201 51.9954C116.634 51.984 116.071 52.0785 115.538 52.2742C115.113 52.4241 114.739 52.6946 114.461 53.0532C114.216 53.3819 114.086 53.7835 114.092 54.1949C114.063 54.6284 114.205 55.0559 114.488 55.3837C114.741 55.6582 115.062 55.8589 115.419 55.9646C115.866 56.0944 116.321 56.1921 116.782 56.2567C117.135 56.2919 117.484 56.3639 117.822 56.4717C117.916 56.494 117.999 56.547 118.059 56.6224C118.119 56.6978 118.153 56.7912 118.155 56.888C118.155 57.3011 117.743 57.5093 116.918 57.5093C116.494 57.5077 116.072 57.4455 115.665 57.3246C115.281 57.2223 114.915 57.0627 114.577 56.8511L113.913 58.2648C114.307 58.5091 114.738 58.6871 115.189 58.792C115.725 58.9304 116.275 59.0003 116.828 59.0002M110.295 59.0002C110.944 59.0159 111.585 58.8584 112.154 58.5435C112.665 58.2608 113.071 57.8176 113.311 57.2809L111.798 56.4448C111.661 56.7317 111.446 56.9726 111.177 57.1388C110.908 57.305 110.597 57.3893 110.282 57.3817C110.048 57.3894 109.815 57.3483 109.598 57.2611C109.381 57.1738 109.183 57.0423 109.019 56.8746C108.695 56.4906 108.517 56.0025 108.517 55.4978C108.517 54.9932 108.695 54.5051 109.019 54.1211C109.183 53.9534 109.381 53.8219 109.598 53.7346C109.815 53.6474 110.048 53.6063 110.282 53.614C110.597 53.6093 110.906 53.6948 111.174 53.8606C111.443 54.0265 111.659 54.2658 111.798 54.5509L113.304 53.7282C113.071 53.1821 112.664 52.7305 112.147 52.4454C111.577 52.1358 110.936 51.9808 110.289 51.9954C109.617 51.985 108.953 52.1395 108.354 52.4454C107.805 52.7282 107.344 53.1595 107.024 53.6912C106.708 54.2399 106.542 54.8632 106.542 55.4978C106.542 56.1324 106.708 56.7557 107.024 57.3044C107.343 57.8375 107.803 58.2693 108.354 58.5503C108.953 58.8562 109.617 59.0106 110.289 59.0002M104.118 51.1492C104.443 51.1589 104.759 51.0381 104.996 50.8134C105.105 50.7087 105.191 50.5819 105.248 50.4412C105.306 50.3006 105.333 50.1494 105.328 49.9974C105.331 49.8541 105.303 49.7119 105.245 49.5808C105.188 49.4498 105.103 49.3329 104.996 49.2385C104.751 49.0302 104.438 48.9224 104.118 48.9363C103.797 48.9217 103.483 49.0351 103.244 49.252C103.137 49.3519 103.051 49.4732 102.993 49.6081C102.934 49.7431 102.904 49.8888 102.904 50.0361C102.904 50.1833 102.934 50.329 102.993 50.464C103.051 50.5989 103.137 50.7202 103.244 50.8201C103.483 51.037 103.797 51.1504 104.118 51.1358M103.144 58.8861H105.096V52.0962H103.144V58.8861ZM101.402 57.1802C101.173 57.3512 100.895 57.4399 100.611 57.432C100.497 57.4393 100.383 57.4221 100.276 57.3816C100.17 57.3411 100.073 57.2781 99.9922 57.197C99.9136 57.1052 99.8537 56.9986 99.8161 56.8833C99.7784 56.7681 99.7637 56.6464 99.7728 56.5254V53.755H101.452V52.2507H99.7728V49.4904L97.8212 50.5918V52.2507H96.7806V53.7651H97.8212V56.559C97.799 56.8925 97.8467 57.2271 97.9612 57.5407C98.0758 57.8543 98.2547 58.14 98.4862 58.379C99.0043 58.8207 99.6713 59.0433 100.348 59.0002C100.645 59.0009 100.941 58.9648 101.229 58.8928C101.485 58.8291 101.725 58.715 101.937 58.557L101.402 57.1802ZM92.6647 53.4864C93.0652 53.4759 93.456 53.6118 93.7652 53.8692C94.0684 54.1326 94.2649 54.4996 94.3171 54.9001H90.9924C91.0408 54.4965 91.2378 54.1261 91.5443 53.8625C91.8588 53.6061 92.2541 53.4726 92.6581 53.4864M96.1489 55.5213C96.163 54.8693 96.0058 54.2251 95.6935 53.6543C95.3981 53.1308 94.961 52.7033 94.4334 52.4219C93.8711 52.1366 93.25 51.9898 92.6207 51.9933C91.9915 51.9968 91.372 52.1506 90.8129 52.4421C90.2757 52.7299 89.8289 53.1638 89.5229 53.6946C89.2074 54.2403 89.0453 54.8626 89.0541 55.4945C89.0426 56.1297 89.2073 56.7555 89.5296 57.3011C89.8517 57.8387 90.3203 58.2712 90.8794 58.5469C91.5062 58.8559 92.1967 59.0101 92.8941 58.9969C94.1143 58.9969 95.0385 58.6308 95.6735 57.8954L94.6329 56.7504C94.4148 56.9645 94.1573 57.1333 93.8749 57.2473C93.576 57.3584 93.2591 57.412 92.9406 57.4052C92.4875 57.4221 92.0407 57.294 91.664 57.0392C91.3269 56.8008 91.0945 56.4397 91.0157 56.0318H96.109C96.1323 55.696 96.1456 55.5247 96.1456 55.5012M84.8418 51.9719C84.3652 51.9667 83.8933 52.0664 83.4587 52.2641C83.0486 52.4482 82.6891 52.7306 82.4115 53.0868C82.1853 52.7293 81.8653 52.4422 81.4872 52.2574C81.0844 52.0642 80.6432 51.9665 80.1973 51.9719C79.7884 51.9679 79.3828 52.0455 79.0037 52.2003C78.6488 52.3481 78.3333 52.5782 78.0828 52.8719V52.0861H76.2176V58.8995H78.1692V55.4844C78.1311 55.0015 78.2748 54.5218 78.5715 54.1412C78.7072 53.9916 78.8736 53.8738 79.0591 53.7961C79.2446 53.7183 79.4447 53.6826 79.6454 53.6912C80.4987 53.6912 80.9254 54.2274 80.9254 55.2997V58.8995H82.8769V55.4844C82.8395 55.0021 82.9818 54.5231 83.2759 54.1412C83.4142 53.9905 83.5835 53.8721 83.7719 53.7944C83.9602 53.7167 84.1631 53.6815 84.3664 53.6912C84.5435 53.681 84.7206 53.7116 84.8842 53.7809C85.0478 53.8501 85.1936 53.9561 85.3106 54.0908C85.5572 54.4425 85.6747 54.87 85.643 55.2997V58.8995H87.5946V55.0042C87.5946 54.0035 87.3464 53.2513 86.8499 52.7476C86.5846 52.4932 86.2712 52.2954 85.9284 52.1662C85.5856 52.0369 85.2206 51.9788 84.8551 51.9954M71.7161 59.0002C72.2972 59.0128 72.8758 58.9207 73.4249 58.7282C73.8539 58.5827 74.2332 58.3172 74.5188 57.9626C74.7663 57.6413 74.8988 57.2448 74.8944 56.8377C74.9196 56.414 74.7801 55.9971 74.5055 55.6758C74.2574 55.4041 73.9416 55.2047 73.5912 55.0982C73.1473 54.9735 72.6966 54.8748 72.2414 54.8027C71.876 54.7557 71.5155 54.6759 71.1642 54.5643C71.0679 54.5382 70.9829 54.4805 70.9227 54.4002C70.8625 54.32 70.8305 54.2217 70.8317 54.1211C70.8365 54.0226 70.8687 53.9276 70.9245 53.8468C70.9804 53.766 71.0577 53.7028 71.1476 53.6644C71.4411 53.5293 71.7631 53.4693 72.0851 53.4897C72.7637 53.4839 73.4319 53.6575 74.0234 53.9934L74.6883 52.5898C74.3229 52.3841 73.9281 52.2369 73.518 52.1533C73.0518 52.0493 72.5759 51.9964 72.0984 51.9954C71.5321 51.9847 70.9686 52.0792 70.4361 52.2742C70.0119 52.4251 69.6393 52.6954 69.3622 53.0532C69.1172 53.3819 68.9873 53.7835 68.9932 54.1949C68.9647 54.6278 69.1056 55.0546 69.3855 55.3837C69.6403 55.6577 69.9627 55.8582 70.3197 55.9646C70.7665 56.0951 71.2221 56.1928 71.6828 56.2567C72.035 56.2918 72.3827 56.3638 72.7201 56.4717C72.8131 56.4945 72.8961 56.5477 72.9562 56.6229C73.0163 56.6982 73.0502 56.7914 73.0526 56.888C73.0526 57.3011 72.6403 57.5093 71.8125 57.5093C71.3892 57.5077 70.9684 57.4455 70.5624 57.3246C70.1779 57.2215 69.8105 57.062 69.4719 56.8511L68.8236 58.2648C69.2182 58.5091 69.6493 58.6871 70.1003 58.792C70.6358 58.9306 71.1865 59.0005 71.7393 59.0002M64.3553 57.3817C64.1246 57.3877 63.8952 57.3451 63.6817 57.2566C63.4682 57.1682 63.2753 57.0358 63.1152 56.8679C62.7995 56.4825 62.6268 55.998 62.6268 55.4978C62.6268 54.9977 62.7995 54.5131 63.1152 54.1278C63.2753 53.9599 63.4682 53.8275 63.6817 53.739C63.8952 53.6506 64.1246 53.608 64.3553 53.614C64.5847 53.6065 64.8131 53.6484 65.0252 53.737C65.2373 53.8256 65.4283 53.9588 65.5854 54.1278C65.8993 54.514 66.0709 54.9982 66.0709 55.4978C66.0709 55.9975 65.8993 56.4817 65.5854 56.8679C65.4283 57.0369 65.2373 57.1701 65.0252 57.2587C64.8131 57.3473 64.5847 57.3892 64.3553 57.3817ZM64.3553 59.0002C65.0163 59.0117 65.6698 58.8571 66.257 58.5503C66.8011 58.2667 67.256 57.8352 67.5702 57.3044C67.8816 56.7543 68.0454 56.1315 68.0454 55.4978C68.0454 54.8641 67.8816 54.2414 67.5702 53.6912C67.2544 53.1618 66.7999 52.7307 66.257 52.4454C65.6647 52.1494 65.0128 51.9954 64.352 51.9954C63.6911 51.9954 63.0392 52.1494 62.4469 52.4454C61.8966 52.7262 61.4357 53.158 61.1171 53.6912C60.8034 54.2406 60.6383 54.8637 60.6383 55.4978C60.6383 56.132 60.8034 56.755 61.1171 57.3044C61.4348 57.8384 61.8959 58.2703 62.4469 58.5503C63.0367 58.8566 63.6922 59.0111 64.3553 59.0002ZM56.9712 59.0002C57.6197 59.0156 58.2607 58.8581 58.8297 58.5435C59.3409 58.2608 59.7471 57.8176 59.9867 57.2809L58.4707 56.4448C58.3345 56.7314 58.1193 56.9722 57.851 57.1384C57.5827 57.3046 57.2726 57.3891 56.9579 57.3817C56.7242 57.3894 56.4913 57.3483 56.274 57.2611C56.0566 57.1738 55.8594 57.0423 55.6946 56.8746C55.3705 56.4906 55.1924 56.0025 55.1924 55.4978C55.1924 54.9932 55.3705 54.5051 55.6946 54.1211C55.8594 53.9534 56.0566 53.8219 56.274 53.7346C56.4913 53.6474 56.7242 53.6063 56.9579 53.614C57.272 53.6099 57.5807 53.6957 57.8484 53.8615C58.1161 54.0273 58.3319 54.2663 58.4707 54.5509L59.9867 53.7282C59.7537 53.1821 59.3464 52.7305 58.8297 52.4454C58.259 52.1361 57.6188 51.9811 56.9712 51.9954C56.2997 51.985 55.6357 52.1395 55.0363 52.4454C54.4872 52.7282 54.0268 53.1595 53.7064 53.6912C53.3908 54.2399 53.2246 54.8632 53.2246 55.4978C53.2246 56.1324 53.3908 56.7557 53.7064 57.3044C54.0268 57.8362 54.4872 58.2675 55.0363 58.5503C55.6357 58.8562 56.2997 59.0106 56.9712 59.0002ZM47.1103 51.9954C46.6771 51.9918 46.2472 52.0715 45.8436 52.2305C45.4759 52.3756 45.1468 52.6056 44.8828 52.9021V52.1029H43.0177V58.8995H44.9692V55.5415C44.933 55.0445 45.0905 54.5528 45.4081 54.1714C45.5609 54.0148 45.7447 53.8926 45.9476 53.8128C46.1504 53.7329 46.3676 53.6972 46.585 53.708C46.77 53.6978 46.955 53.7282 47.1272 53.7972C47.2994 53.8662 47.4547 53.9721 47.5824 54.1076C47.8433 54.453 47.9688 54.8834 47.9348 55.3165V58.8995H49.8864V55.0042C49.8864 54.0102 49.6304 53.2603 49.1184 52.7544C48.8484 52.4984 48.5306 52.2994 48.1835 52.1691C47.8364 52.0388 47.467 51.9797 47.097 51.9954M37.7215 57.6738C37.4356 57.6897 37.1523 57.612 36.9136 57.4522C36.8198 57.3839 36.744 57.2934 36.693 57.1886C36.6419 57.0837 36.6172 56.9679 36.621 56.8511C36.621 56.3205 37.02 56.0553 37.8212 56.0553H39.1511V56.7504C39.0531 57.0383 38.8577 57.2821 38.5992 57.4388C38.3301 57.5974 38.0231 57.6787 37.7115 57.6738M37.8611 51.9954C37.3265 51.9954 36.7942 52.0676 36.2786 52.2104C35.8038 52.3337 35.3539 52.5393 34.9487 52.8181L35.6502 54.1949C35.9267 53.9844 36.2388 53.8262 36.5712 53.7282C36.9123 53.6147 37.2692 53.5569 37.6284 53.5569C38.0439 53.5211 38.458 53.6406 38.792 53.8927C38.925 54.0188 39.0288 54.1729 39.096 54.3441C39.1633 54.5154 39.1923 54.6995 39.181 54.8833H37.6284C36.6443 54.8833 35.9162 55.0647 35.4441 55.4273C35.2158 55.5996 35.0324 55.8253 34.9096 56.085C34.7869 56.3447 34.7284 56.6307 34.7393 56.9183C34.7332 57.2941 34.8373 57.6633 35.0385 57.9794C35.2522 58.3046 35.5548 58.5601 35.9096 58.7148C36.3291 58.8977 36.7825 58.9881 37.2394 58.9801C38.2413 58.9801 38.9261 58.6644 39.2941 58.0331V58.8793H41.1193V55.0176C41.1193 54.008 40.84 53.2513 40.2815 52.7476C39.7229 52.2439 38.9295 51.9932 37.901 51.9954M32.6448 52.0962L31.0057 56.7L29.4032 52.0962H27.7409L26.0786 56.7L24.4894 52.0962H22.6542L25.0812 58.8995H26.9596L28.5222 54.6751L30.0382 58.8995H31.9167L34.357 52.0962H32.6448ZM19.0137 51.9954C18.6034 51.9917 18.1958 52.0623 17.8102 52.2036C17.4593 52.3351 17.1398 52.54 16.8726 52.8047V49.5172H14.8944V58.8995H16.846V55.5415C16.8089 55.0417 16.9677 54.5473 17.2882 54.1647C17.4413 54.0085 17.6251 53.8865 17.8279 53.8067C18.0306 53.7268 18.2477 53.6909 18.4651 53.7013C18.65 53.6917 18.8348 53.7224 19.0069 53.7914C19.179 53.8603 19.3344 53.9659 19.4625 54.1009C19.7208 54.4474 19.845 54.8773 19.8116 55.3098V58.8995H21.7765V55.0042C21.7765 54.0102 21.5205 53.2603 21.0085 52.7544C20.7385 52.4984 20.4206 52.2994 20.0735 52.1691C19.7264 52.0388 19.3571 51.9797 18.9871 51.9954M10.6755 59.0002C11.324 59.0159 11.9651 58.8584 12.5339 58.5435C13.0462 58.2621 13.4527 57.8185 13.6909 57.2809L12.1782 56.4448C12.0415 56.7317 11.8257 56.9726 11.5568 57.1388C11.2879 57.305 10.9773 57.3893 10.6622 57.3817C10.4284 57.389 10.1957 57.3477 9.97841 57.2605C9.7611 57.1733 9.56382 57.0419 9.39879 56.8746C9.07656 56.4897 8.89975 56.0019 8.89975 55.4978C8.89975 54.9938 9.07656 54.506 9.39879 54.1211C9.56382 53.9537 9.7611 53.8224 9.97841 53.7352C10.1957 53.648 10.4284 53.6067 10.6622 53.614C10.9767 53.6093 11.2862 53.6948 11.5546 53.8606C11.8229 54.0265 12.0392 54.2658 12.1782 54.5509L13.6909 53.7282C13.4601 53.1807 13.0522 52.7284 12.5339 52.4454C11.9633 52.1358 11.323 51.9808 10.6755 51.9954C10.0049 51.9847 9.34194 52.1391 8.74383 52.4454C8.18728 52.7329 7.72015 53.1701 7.39393 53.7087C7.06772 54.2473 6.8951 54.8664 6.8951 55.4978C6.8951 56.1292 7.06772 56.7484 7.39393 57.287C7.72015 57.8256 8.18728 58.2627 8.74383 58.5503C9.34194 58.8566 10.0049 59.011 10.6755 59.0002ZM2.91572 59.0002C3.49684 59.0131 4.07557 58.921 4.62459 58.7282C5.0536 58.5827 5.4329 58.3172 5.7184 57.9626C5.96741 57.6421 6.10002 57.245 6.09409 56.8377C6.11879 56.4146 5.9806 55.9983 5.70843 55.6758C5.45981 55.4047 5.14425 55.2054 4.79415 55.0982C4.34901 54.9739 3.89724 54.8752 3.44101 54.8027C3.07667 54.7562 2.71724 54.6764 2.36715 54.5643C2.27087 54.5382 2.18593 54.4805 2.12573 54.4002C2.06553 54.32 2.0335 54.2217 2.03469 54.1211C2.03701 54.0251 2.06557 53.9316 2.11721 53.851C2.16884 53.7704 2.24154 53.7058 2.32726 53.6644C2.62121 53.5305 2.94291 53.4706 3.26481 53.4897C3.9444 53.4839 4.61372 53.6575 5.20641 53.9934L5.87134 52.5898C5.50567 52.3846 5.11097 52.2374 4.70106 52.1533C4.23375 52.0491 3.75666 51.9962 3.27811 51.9954C2.71175 51.9844 2.14822 52.0788 1.61578 52.2742C1.18736 52.4239 0.810958 52.6957 0.531944 53.0566C0.286889 53.3852 0.157059 53.7869 0.162908 54.1983C0.133882 54.6318 0.276147 55.0593 0.558542 55.387C0.812087 55.6609 1.13346 55.8615 1.48944 55.968C1.93639 56.0978 2.39191 56.1954 2.85255 56.2601C3.20584 56.2952 3.55458 56.3672 3.89317 56.475C3.98646 56.4973 4.06975 56.5504 4.12994 56.6257C4.19013 56.7011 4.22379 56.7946 4.22563 56.8914C4.22563 57.3044 3.81338 57.5126 2.98886 57.5126C2.56453 57.511 2.14256 57.4489 1.73547 57.3279C1.35736 57.223 0.996637 57.0623 0.66493 56.8511L0 58.2648C0.394555 58.5091 0.825702 58.6871 1.27667 58.792C1.81225 58.9304 2.3629 59.0003 2.91572 59.0002Z" fill="#C0192B"/>
<path d="M52.5793 0.124246C51.3193 0.38617 51.0533 1.48759 50.6244 2.49499C50.5813 2.57675 50.5324 2.6553 50.4782 2.73005C49.6603 4.15048 47.6522 4.40905 46.2858 4.60381C46.1713 4.60722 46.0589 4.63516 45.9559 4.6858C45.8529 4.73643 45.7618 4.8086 45.6885 4.89751C45.6153 4.98642 45.5616 5.09004 45.531 5.20151C45.5004 5.31298 45.4936 5.42974 45.5111 5.54405C45.5577 6.04439 45.8602 6.02089 46.1528 5.99738C46.2247 5.99251 46.2969 5.99251 46.3689 5.99738C48.6629 6.09812 50.4349 5.99738 53.9358 6.23244C58.5903 6.53802 57.5597 12.3809 51.8014 19.2514C48.8491 22.7739 39.4802 32.3476 38.5925 35.7459C38.4443 36.3182 38.3683 36.9072 38.3665 37.4987V37.5558C38.3665 40.6318 40.3612 43.654 44.1713 43.654C55.6347 43.6338 65.6951 43.654 77.1552 43.6338C77.4411 43.6338 87.9038 33.59 88.0767 32.5054C84.3397 32.5457 80.7192 32.7371 77.0588 34.0232C77.215 33.7512 77.2649 33.6505 77.3247 33.5598C80.2172 29.2482 81.8795 24.3388 83.0864 19.2111C83.1695 18.8753 83.2925 18.5093 82.7539 18.4656C76.8094 18.0157 70.9381 18.3044 65.2629 20.5509C61.3365 22.1057 57.4333 24.5805 55.791 29.0299C55.1493 30.776 54.8767 32.3509 53.6299 33.6941C52.596 34.8123 51.1364 35.0575 50.3053 34.4228C49.1051 33.5128 49.2746 32.314 49.7235 31.0178C51.0267 27.2602 53.3174 24.1877 55.4485 21.0009C57.7957 17.4918 60.226 13.9827 60.4554 9.40575C60.6316 5.81941 59.724 2.37746 56.8814 0.856289C55.9338 0.315465 54.8678 0.0212026 53.7795 0C53.3764 0.000610199 52.9743 0.0422356 52.5793 0.124246Z" fill="#C0192B"/>
</g>
</g>
<defs>
<clipPath id="clip0_954_4073">
<rect width="120" height="59" fill="#C0192B"/>
</clipPath>
<clipPath id="clip1_954_4073">
<rect width="120" height="59" fill="#C0192B"/>
</clipPath>
</defs>
</svg>
